<?xml version="1.0" encoding="UTF-8"?>
<!DOCTYPE svg PUBLIC "-//W3C//DTD SVG 1.1//EN" "http://www.w3.org/Graphics/SVG/1.1/DTD/svg11.dtd">
<svg xmlns="http://www.w3.org/2000/svg" xml:space="preserve" width="5.90551in" height="5.90551in" style="shape-rendering:geometricPrecision; text-rendering:geometricPrecision; image-rendering:optimizeQuality; fill-rule:evenodd; clip-rule:evenodd"
viewBox="0 0 5906 5906"
 xmlns:xlink="http://www.w3.org/1999/xlink">
 <defs>
  <style type="text/css">
   <![CDATA[
    .fil0 {fill:#D4D5D9}
   ]]>
  </style>
 </defs>
 <g>
  <path class="fil0" d="M1074 1324c-44,229 -58,1011 8,1221 187,-119 274,-269 416,-374 146,-109 402,-183 582,-224 158,-36 675,-255 850,-344 105,-53 139,-121 217,-185 35,143 33,249 -34,382 -93,184 -82,131 -178,269 81,53 240,20 331,-6 66,-19 228,-112 265,-113 42,203 -73,306 -161,451 142,121 183,159 189,365 20,657 134,556 414,732 70,44 309,191 265,312 -79,108 -240,230 -375,266 -149,40 -146,260 -445,172 -301,-89 -634,-425 -937,-108 -100,104 -173,342 -152,488 50,348 563,629 660,591 713,-281 1295,-933 1584,-1654 134,-334 210,-679 258,-1034 32,-239 67,-1005 -5,-1209 -236,5 -246,55 -590,10 -163,-21 -346,-77 -498,-140 -177,-74 -453,-228 -603,-356 -53,-45 -130,-114 -185,-152 -48,26 -116,107 -169,146 -58,43 -125,92 -187,133 -837,550 -1364,338 -1521,362z"/>
 </g>
</svg>
